<?xml version="1.0" encoding="UTF-8"?>
<svg width="14px" height="14px" viewBox="0 0 14 14" version="1.1" xmlns="http://www.w3.org/2000/svg" xmlns:xlink="http://www.w3.org/1999/xlink">
    <title>形状结合</title>
    <g id="移动端" stroke="none" stroke-width="1" fill="none" fill-rule="evenodd">
        <g id="银行" transform="translate(-346.000000, -80.000000)" fill="#666666" fill-rule="nonzero">
            <g id="搜索-带筛选" transform="translate(0.000000, 63.000000)">
                <g id="编组" transform="translate(317.000000, 14.000000)">
                    <path d="M40.5,4.5 C41.3284271,4.5 42,5.16261671 42,5.97999585 L42,5.97999585 L42,6.4733278 C42,6.9391673 41.7777088,7.37782078 41.4,7.65732448 L41.4,7.65732448 L38.2,10.0253178 C38.0740971,10.1184857 38,10.2647036 38,10.4199834 L38,10.4199834 L38,14.3319244 C38,14.8267658 37.7493483,15.2888668 37.3320503,15.5633554 L37.3320503,15.5633554 L36.2773501,16.2571118 C35.604225,16.6998773 34.6947655,16.5204111 34.2460155,15.8562629 C34.085601,15.6188502 34,15.3398997 34,15.0545651 L34,15.0545651 L34,10.4199834 C34,10.2647036 33.9259029,10.1184857 33.8,10.0253178 L33.8,10.0253178 L30.6,7.65732448 C30.2222912,7.37782078 30,6.9391673 30,6.4733278 L30,6.4733278 L30,5.97999585 C30,5.16261671 30.6715729,4.5 31.5,4.5 L31.5,4.5 Z M40.5,5.4866639 L31.5,5.4866639 C31.2238576,5.4866639 31,5.70753614 31,5.97999585 L31,5.97999585 L31,6.4733278 C31,6.62860763 31.0740971,6.77482546 31.2,6.86799336 L31.2,6.86799336 L34.4,9.23598672 C34.7777088,9.51549042 35,9.95414389 35,10.4199834 L35,10.4199834 L35,15.0545651 C35,15.1451076 35.0271629,15.2336243 35.0780658,15.3089603 C35.2204633,15.5197081 35.5090535,15.5766564 35.7226499,15.4361578 L35.7226499,15.4361578 L36.7773501,14.7424014 C36.9164494,14.6509052 37,14.4968716 37,14.3319244 L37,14.3319244 L37,10.4199834 C37,9.95414389 37.2222912,9.51549042 37.6,9.23598672 L37.6,9.23598672 L40.8,6.86799336 C40.9259029,6.77482546 41,6.62860763 41,6.4733278 L41,6.4733278 L41,5.97999585 C41,5.70753614 40.7761424,5.4866639 40.5,5.4866639 L40.5,5.4866639 Z M38.5,6.4733278 L38.5,7.4599917 L33.5,7.4599917 L33.5,6.4733278 L38.5,6.4733278 Z" id="形状结合"></path>
                </g>
            </g>
        </g>
    </g>
</svg>