<?xml version="1.0" encoding="UTF-8"?>
<svg width="28px" height="28px" viewBox="0 0 28 28" version="1.1" xmlns="http://www.w3.org/2000/svg" xmlns:xlink="http://www.w3.org/1999/xlink">
    <title>编组 4</title>
    <g id="移动端" stroke="none" stroke-width="1" fill="none" fill-rule="evenodd">
        <g id="授信贷款" transform="translate(-33.000000, -687.000000)">
            <g id="操控" transform="translate(0.000000, 683.000000)">
                <g id="小房子" transform="translate(33.000000, 4.000000)">
                    <rect id="蒙版" x="3" y="2" width="23" height="23"></rect>
                    <g id="编组-4" transform="translate(3.000000, 3.045455)" fill="#666666" fill-rule="nonzero">
                        <path d="M11.9624126,0 L22.5174825,9.40909091 L22.5174825,10.1328671 C22.5174825,10.5276542 22.2848639,10.8028088 21.9253624,10.8495742 L21.8138112,10.8566434 L19.7027972,10.8566434 L19.7027972,19.541958 C19.7027972,19.9367451 19.4701786,20.2118997 19.1106771,20.2586651 L18.9991259,20.2657343 L13.3697552,20.2657343 C12.9859345,20.2657343 12.7184231,20.0264694 12.6729567,19.6566964 L12.6660839,19.541958 L12.6660839,13.027972 L9.8513986,13.027972 L9.8513986,19.541958 C9.8513986,19.9367451 9.61877998,20.2118997 9.25927848,20.2586651 L9.14772727,20.2657343 L3.51835664,20.2657343 C3.13453592,20.2657343 2.8670245,20.0264694 2.82155814,19.6566964 L2.81468531,19.541958 L2.81468531,10.8566434 L0.703671329,10.8566434 C0.319850604,10.8566434 0.0523391897,10.6173785 0.00687282289,10.2476055 L0,10.1328671 L0,9.40909091 L10.5550699,0 L11.9624126,0 Z M11.4445909,1.35909091 L11.0724091,1.35909091 L1.9435,9.49690909 L4.17377622,9.49755245 L4.17345455,18.906 L8.49222727,18.906 L8.49230769,11.6688811 L14.0251748,11.6688811 L14.0247727,18.906 L18.3435455,18.906 L18.3437063,9.49755245 L20.5735,9.49690909 L11.4445909,1.35909091 Z M20.4064685,1.44755245 C20.7902893,1.44755245 21.0578007,1.68681731 21.103267,2.05659029 L21.1101399,2.17132867 L21.1101399,5.79020979 L19.7027972,4.55979021 L19.7027972,2.8951049 L17.8028846,2.8951049 L16.1844406,1.44755245 L20.4064685,1.44755245 Z" id="形状"></path>
                    </g>
                </g>
            </g>
        </g>
    </g>
</svg>