<?xml version="1.0" encoding="UTF-8"?>
<svg width="16px" height="16px" viewBox="0 0 16 16" version="1.1" xmlns="http://www.w3.org/2000/svg" xmlns:xlink="http://www.w3.org/1999/xlink">
    <title>星形</title>
    <g id="移动端" stroke="none" stroke-width="1" fill="none" fill-rule="evenodd">
        <g id="银行" transform="translate(-337.000000, -387.000000)">
            <g id="编组-16" transform="translate(8.000000, 369.000000)">
                <g id="编组-12" transform="translate(329.000000, 18.000000)">
                    <rect id="矩形" x="0" y="0" width="16" height="16"></rect>
                    <path d="M6.57432732,0.950396855 L5.01055867,4.67595114 C4.98165811,4.74480442 4.9201823,4.79442988 4.84699745,4.80798355 L1.26636228,5.47110945 C0.926421501,5.53406575 0.617277076,5.70952123 0.38825534,5.96948064 C-0.17778882,6.61198955 -0.117880033,7.59355356 0.522065361,8.1618652 L3.01717197,10.3776764 C3.07806842,10.4317562 3.10447261,10.515039 3.08591762,10.5945106 L2.26931349,14.0920503 C2.18462624,14.4547683 2.23261772,14.8359649 2.40453531,15.1661178 C2.80036999,15.9262841 3.7350353,16.2203479 4.49216871,15.8229276 L7.89748374,14.0354732 C7.96162457,14.0018056 8.03812066,14.0018056 8.10226148,14.0354732 L11.5075765,15.8229276 C11.8364122,15.9955339 12.2160878,16.0437176 12.5773586,15.9586911 C13.409173,15.7629203 13.9254214,14.9271968 13.7304317,14.0920503 L12.9138276,10.5945106 C12.8952726,10.515039 12.9216768,10.4317562 12.9825733,10.3776764 L15.4776799,8.1618652 C15.7366021,7.93192604 15.9113575,7.62154323 15.9740626,7.2802407 C16.1290429,6.43668625 15.5735717,5.6267106 14.7333829,5.47110945 L11.1527478,4.80798355 C11.0795629,4.79442988 11.0180871,4.74480442 10.9891866,4.67595114 L9.4254179,0.950396855 C9.26864108,0.576888548 8.97264771,0.27970948 8.60062965,0.122304629 C7.81332273,-0.210813415 6.90611627,0.159936103 6.57432732,0.950396855 Z M8.08569505,1.34909532 C8.13884048,1.37158172 8.18112525,1.41403588 8.20352194,1.46739421 L9.76729059,5.19294849 C9.9695945,5.67492146 10.3999252,6.02229963 10.9122192,6.11717537 L14.4928543,6.78030126 C14.6128813,6.80253 14.6922343,6.9182408 14.6700943,7.03874858 C14.6611364,7.08750609 14.6361714,7.13184649 14.5991825,7.16469494 L12.1040759,9.38050609 C11.6778007,9.75906516 11.4929714,10.3420448 11.6228563,10.8983457 L12.4394605,14.3958854 C12.4673161,14.5151921 12.3935664,14.6345811 12.2747357,14.6625484 C12.2231256,14.674695 12.1688863,14.6678116 12.1219097,14.6431536 L8.7165947,12.8556992 C8.26760891,12.620026 7.73213632,12.620026 7.28315053,12.8556992 L3.8778355,14.6431536 C3.76967358,14.6999279 3.63614996,14.6579188 3.57960215,14.5493236 C3.5550425,14.5021589 3.54818657,14.4477023 3.56028475,14.3958854 L4.37688888,10.8983457 C4.50677378,10.3420448 4.32194451,9.75906516 3.89566936,9.38050609 L1.40056275,7.16469494 C1.30914198,7.08350756 1.30058358,6.94328413 1.38144703,6.85149715 C1.41416442,6.81436009 1.45832791,6.78929502 1.50689088,6.78030126 L5.08752604,6.11717537 C5.59982002,6.02229963 6.03015072,5.67492146 6.23245464,5.19294849 L7.79622329,1.46739421 C7.83572197,1.37329173 7.93230572,1.32082728 8.02849133,1.33349261 L8.08569505,1.34909532 Z" id="星形" fill="#FBB902" fill-rule="nonzero"></path>
                </g>
            </g>
        </g>
    </g>
</svg>