<?xml version="1.0" encoding="UTF-8"?>
<svg width="28px" height="28px" viewBox="0 0 28 28" version="1.1" xmlns="http://www.w3.org/2000/svg" xmlns:xlink="http://www.w3.org/1999/xlink">
    <title>融资</title>
    <defs>
        <linearGradient x1="123.300285%" y1="-33.4959395%" x2="-34.8176988%" y2="129.020968%" id="linearGradient-1">
            <stop stop-color="#4892F8" offset="0%"></stop>
            <stop stop-color="#3F74F9" offset="44.1412697%"></stop>
            <stop stop-color="#10C1F3" offset="100%"></stop>
        </linearGradient>
        <path d="M14.7262763,15.9957952 C18.0713135,15.9957952 20.7824028,13.3105667 20.7824028,9.9978976 C20.7824028,6.68520744 18.0713135,4 14.7262763,4 C11.3819761,4 8.67086572,6.6852285 8.67086572,9.9978976 C8.67086572,13.3113038 11.3826921,15.9965323 14.7269923,15.9965323 L14.7262763,15.9957952 Z" id="path-2"></path>
        <filter x="-82.6%" y="-66.7%" width="265.1%" height="266.7%" filterUnits="objectBoundingBox" id="filter-3">
            <feOffset dx="0" dy="2" in="SourceAlpha" result="shadowOffsetOuter1"></feOffset>
            <feGaussianBlur stdDeviation="3" in="shadowOffsetOuter1" result="shadowBlurOuter1"></feGaussianBlur>
            <feColorMatrix values="0 0 0 0 0   0 0 0 0 0.390462091   0 0 0 0 0.974637681  0 0 0 0.159609921 0" type="matrix" in="shadowBlurOuter1"></feColorMatrix>
        </filter>
        <linearGradient x1="123.300285%" y1="35.8174936%" x2="-34.8176988%" y2="63.4223939%" id="linearGradient-4">
            <stop stop-color="#4892F8" offset="0%"></stop>
            <stop stop-color="#3F74F9" offset="44.1412697%"></stop>
            <stop stop-color="#10C1F3" offset="100%"></stop>
        </linearGradient>
        <path d="M25.7927459,17.7624805 C25.4434375,17.3168595 24.6600064,16.943832 23.0701582,17.8681356 C23.2175004,17.2183932 22.693538,16.8166155 22.0739799,16.8166155 C21.5248609,16.8166155 20.8837422,16.9560516 20.3741536,17.4656398 C19.6424737,16.5168997 18.8892312,16.6304598 17.4237044,17.5245768 C16.8652414,17.8659795 16.3736206,18.1570695 16.0063444,18.361193 C15.9085954,18.4150987 15.8302525,18.4567858 15.7519102,18.4977541 C15.8956586,18.5265039 16.041564,18.5523786 16.2018441,18.5523786 C18.2574482,18.5523786 19.8818084,18.5523786 19.8818084,20.3082667 C19.8818084,21.6573462 18.289075,22.0454669 17.4459851,22.0619984 L13.6366536,22.0619984 C12.0676393,22.0619984 10.5309763,20.4520154 10.5309763,20.4520154 C10.5309763,20.4520154 12.3450829,21.1844134 13.6373907,21.1844134 L17.4373929,21.1844134 C17.4445804,21.1844134 18.9891576,21.1240389 18.9891576,20.3082667 C18.9891576,19.5607734 18.5722867,19.4306817 16.2018757,19.4306817 C14.6544219,19.4306817 13.0897122,18.5322543 13.0897122,18.5322543 C13.0897122,18.5322543 11.5235725,17.4067024 11.042734,17.1105814 C9.90496353,16.4112443 8.99575587,15.747845 7.00914209,16.517619 C5.75062392,17.0063631 3,18.2656015 3,18.2656015 L5.53572857,23.8020689 L6.82874607,22.9762329 C7.54389443,22.5284555 7.93992288,22.4515511 8.86422584,22.9187335 C9.75906052,23.371542 12.509695,24.7802761 13.1975336,25.1080156 C15.3106443,26.1164125 16.2169731,25.2136707 17.2383068,24.6336445 C18.1094224,24.1398672 24.2776707,20.1199427 24.9259811,19.6685789 C25.9379708,18.9656491 26.253498,18.3518423 25.7927838,17.7624727 L25.7927459,17.7624805 Z" id="path-5"></path>
        <filter x="-43.5%" y="-85.2%" width="187.0%" height="313.0%" filterUnits="objectBoundingBox" id="filter-6">
            <feOffset dx="0" dy="2" in="SourceAlpha" result="shadowOffsetOuter1"></feOffset>
            <feGaussianBlur stdDeviation="3" in="shadowOffsetOuter1" result="shadowBlurOuter1"></feGaussianBlur>
            <feColorMatrix values="0 0 0 0 0   0 0 0 0 0.390462091   0 0 0 0 0.974637681  0 0 0 0.159609921 0" type="matrix" in="shadowBlurOuter1"></feColorMatrix>
        </filter>
    </defs>
    <g id="移动端" stroke="none" stroke-width="1" fill="none" fill-rule="evenodd">
        <g id="授信贷款" transform="translate(-173.000000, -685.000000)">
            <g id="融资" transform="translate(173.000000, 685.000000)">
                <g id="路径">
                    <use fill="black" fill-opacity="1" filter="url(#filter-3)" xlink:href="#path-2"></use>
                    <use fill="url(#linearGradient-1)" fill-rule="evenodd" xlink:href="#path-2"></use>
                </g>
                <path d="M12.5125443,10.4427963 L12.5125443,10.4427963 C12.3903172,10.4403435 12.2744458,10.3878637 12.191986,10.2976103 L12.1919861,10.2976103 C12.1137973,10.2039186 12.0661444,10.0885482 12.0554227,9.96698785 L12.0554227,9.9669879 C12.0663942,9.85043481 12.1142299,9.74041306 12.1919861,9.65289695 C12.2667354,9.57167904 12.3731093,9.52567944 12.5125443,9.5156171 L13.6273139,9.5156171 L12.5901689,7.70582346 L12.5901689,7.70582347 C12.5317921,7.63420249 12.4823169,7.5557661 12.4428267,7.47223167 L12.4428267,7.47223161 C12.3959295,7.37574846 12.3746434,7.26882242 12.3810149,7.16173548 L12.3810149,7.16173559 C12.3998521,7.03364433 12.4532805,6.9131201 12.5355444,6.81314531 C12.6131685,6.72330236 12.7583538,6.66580311 12.9696649,6.64064168 L12.9696649,6.64064168 C13.0905046,6.64967831 13.2061166,6.69362602 13.3024418,6.7671457 C13.4001908,6.84117628 13.4799712,6.92167543 13.5417828,7.00864316 L14.7183655,9.13971739 L16.011383,6.99354365 C16.0731948,6.90657571 16.1529754,6.82967033 16.250724,6.76354667 C16.3491918,6.69670363 16.460597,6.6557353 16.5842211,6.64064168 C16.6618453,6.64567287 16.7322821,6.65573528 16.7969684,6.67082891 L16.7969685,6.67082892 C16.9261386,6.6963671 17.0355071,6.78172716 17.0916533,6.9008259 C17.1239968,6.96766894 17.1491527,7.05463687 17.1642463,7.16244762 L17.1642463,7.16244759 C17.1622145,7.31634512 17.1076973,7.46493698 17.0097166,7.58363137 L15.810135,9.51561103 L16.9479055,9.51561103 L16.9479055,9.51561103 C17.0675214,9.51942506 17.1811624,9.56878933 17.2655891,9.65360964 L17.2655891,9.65360964 C17.3443452,9.73993842 17.3905952,9.85098914 17.3964013,9.96770059 L17.3964013,9.96770044 C17.3896838,10.092088 17.3421976,10.2108026 17.2612766,10.3055105 L17.2612766,10.3055105 C17.179567,10.3982516 17.0634974,10.4535598 16.9399981,10.4586027 L15.4615451,10.4657901 L15.4615451,10.9329737 L16.9479059,10.9329737 L16.9479059,10.9329737 C17.0703758,10.9378448 17.1852589,10.9935933 17.2648715,11.0867847 C17.3424956,11.1787837 17.3856202,11.2880326 17.3964013,11.416687 L17.3964013,11.4166868 C17.3899817,11.5389796 17.3437969,11.6558298 17.2648715,11.7494657 L17.2648715,11.7494657 C17.1841942,11.840763 17.0696539,11.8950463 16.9479059,11.8996829 L15.4615452,11.8917767 L15.4615452,12.7039558 C15.4414204,13.1387944 15.2013597,13.3558547 14.7420839,13.3558547 C14.5149615,13.3558547 14.3381497,13.301949 14.2116508,13.1948564 C14.085152,13.087045 14.0168715,12.9246088 14.0060904,12.7046739 L14.0060904,11.9061518 L12.5125421,11.9061518 L12.512542,11.9061518 C12.3846972,11.9015598 12.2662452,11.8378188 12.1919838,11.7336535 L12.1919838,11.7336535 C12.1175746,11.6309526 12.0705742,11.5109788 12.0554227,11.3850632 L12.0554227,11.3850633 C12.0662935,11.2684849 12.1141421,11.1584337 12.1919838,11.0709723 C12.2667331,10.9890357 12.373107,10.9430361 12.5125421,10.9329737 L14.0060904,10.9329737 L14.0060904,10.4499788 L12.5125421,10.4420727 L12.5125443,10.4427963 Z" id="路径" fill="#FFFFFF" fill-rule="nonzero"></path>
                <g id="路径">
                    <use fill="black" fill-opacity="1" filter="url(#filter-6)" xlink:href="#path-5"></use>
                    <use fill="url(#linearGradient-4)" fill-rule="evenodd" xlink:href="#path-5"></use>
                </g>
            </g>
        </g>
    </g>
</svg>