<?xml version="1.0" encoding="UTF-8"?>
<svg width="28px" height="28px" viewBox="0 0 28 28" version="1.1" xmlns="http://www.w3.org/2000/svg" xmlns:xlink="http://www.w3.org/1999/xlink">
    <title>融资备份</title>
    <g id="移动端" stroke="none" stroke-width="1" fill="none" fill-rule="evenodd">
        <g id="1.首页" transform="translate(-173.000000, -1369.000000)" fill-rule="nonzero">
            <g id="操控" transform="translate(0.000000, 1366.000000)">
                <g id="融资备份" transform="translate(173.000000, 3.000000)">
                    <path d="M20.7824028,8.9978976 C20.7824028,5.68520744 18.0713135,3 14.7262763,3 C11.3819761,3 8.67086572,5.6852285 8.67086572,8.9978976 C8.67086572,12.3113038 11.3826921,14.9965323 14.7269923,14.9965323 C18.0713135,14.9957952 20.7824028,12.3105667 20.7824028,8.9978976 Z" id="路径" stroke="#666666" stroke-width="1.2"></path>
                    <path d="M12.191986,9.29761032 C12.1137973,9.2039186 12.0661444,9.0885482 12.0554227,8.96698785 C12.0663942,8.85043481 12.1142299,8.74041306 12.1919861,8.65289695 C12.2667354,8.57167904 12.3731093,8.52567944 12.5125443,8.5156171 L13.6273139,8.5156171 L12.5901689,6.70582346 C12.5317921,6.63420249 12.4823169,6.5557661 12.4428267,6.47223167 C12.3959295,6.37574846 12.3746434,6.26882242 12.3810149,6.16173548 C12.3998521,6.03364433 12.4532805,5.9131201 12.5355444,5.81314531 C12.6131685,5.72330236 12.7583538,5.66580311 12.9696649,5.64064168 C13.0905046,5.64967831 13.2061166,5.69362602 13.3024418,5.7671457 C13.4001908,5.84117628 13.4799712,5.92167543 13.5417828,6.00864316 L14.7183655,8.13971739 L16.011383,5.99354365 C16.0731948,5.90657571 16.1529754,5.82967033 16.250724,5.76354667 C16.3491918,5.69670363 16.460597,5.6557353 16.5842211,5.64064168 C16.6618453,5.64567287 16.7322821,5.65573528 16.7969684,5.67082891 C16.9261386,5.6963671 17.0355071,5.78172716 17.0916533,5.9008259 C17.1239968,5.96766894 17.1491527,6.05463687 17.1642463,6.16244762 C17.1622145,6.31634512 17.1076973,6.46493698 17.0097166,6.58363137 L15.810135,8.51561103 L16.9479055,8.51561103 C17.0675214,8.51942506 17.1811624,8.56878933 17.2655891,8.65360964 C17.3443452,8.73993842 17.3905952,8.85098914 17.3964013,8.96770059 C17.3896838,9.092088 17.3421976,9.21080261 17.2612766,9.30551047 C17.179567,9.39825161 17.0634974,9.45355984 16.9399981,9.4586027 L15.4615451,9.46579011 L15.4615451,9.93297371 L16.9479059,9.93297371 C17.0703758,9.93784476 17.1852589,9.99359331 17.2648715,10.0867847 C17.3424956,10.1787837 17.3856202,10.2880326 17.3964013,10.416687 C17.3899817,10.5389796 17.3437969,10.6558298 17.2648715,10.7494657 C17.1841942,10.840763 17.0696539,10.8950463 16.9479059,10.8996829 L15.4615452,10.8917767 L15.4615452,11.7039558 C15.4414204,12.1387944 15.2013597,12.3558547 14.7420839,12.3558547 C14.5149615,12.3558547 14.3381497,12.301949 14.2116508,12.1948564 C14.085152,12.087045 14.0168715,11.9246088 14.0060904,11.7046739 L14.0060904,10.9061518 L12.5125421,10.9061518 C12.3846972,10.9015598 12.2662452,10.8378188 12.1919838,10.7336535 C12.1175746,10.6309526 12.0705742,10.5109788 12.0554227,10.3850632 C12.0662935,10.2684849 12.1141421,10.1584337 12.1919838,10.0709723 C12.2667331,9.98903568 12.373107,9.94303607 12.5125421,9.93297373 L14.0060904,9.93297373 L14.0060904,9.44997882 L12.5125421,9.44207265 C12.3903172,9.44034352 12.2744458,9.38786372 12.191986,9.29761032 Z" id="路径" fill="#666666"></path>
                    <path d="M23.0701582,16.8681356 C23.2175004,16.2183932 22.693538,15.8166155 22.0739799,15.8166155 C21.5248609,15.8166155 20.8837422,15.9560516 20.3741536,16.4656398 C19.6424737,15.5168997 18.8892312,15.6304598 17.4237044,16.5245768 C16.8652414,16.8659795 16.3736206,17.1570695 16.0063444,17.361193 C15.9085954,17.4150987 15.8302525,17.4567858 15.7519102,17.4977541 C15.7617439,17.4997209 14.6128394,18.062015 15.1309308,18.2757766 C15.5237637,18.4378572 17.4359712,18.3839598 18.1442115,18.5123567 C19.1825333,18.700594 19.0098266,19.0655273 18.9891576,19.3082667 C18.961279,19.6356754 18.4099945,19.8068144 17.3570757,20.1844134 C16.5330096,20.1844134 15.0418936,20.2029294 14.5,20.1844134 C13.5984268,20.1536074 12.5980216,20.0796257 12.115254,19.9575383 C11.6324865,19.8354509 10.5309763,19.4520154 10.5309763,19.4520154 C10.5309763,19.4520154 12.3450829,20.1844134 13.6373907,20.1844134 L17.4237044,20.1559599 C17.4308918,20.1559599 18.7667007,19.7886534 18.9407631,19.4520154 C19.0603014,19.2208275 18.9891576,19.3082667 18.8870291,18.8231012 C18.817601,18.4932802 17.9027169,18.4306817 16.2018757,18.4306817 C14.6544219,18.4306817 13.0897122,17.5322543 13.0897122,17.5322543 C13.0897122,17.5322543 11.5235725,16.4067024 11.042734,16.1105814 C9.90496353,15.4112443 8.99575587,14.747845 7.00914209,15.517619 C5.75062392,16.0063631 3,17.2656015 3,17.2656015 L5.53572857,22.8020689 L6.82874607,21.9762329 C7.54389443,21.5284555 7.93992288,21.4515511 8.86422584,21.9187335 C9.75906052,22.371542 12.509695,23.7802761 13.1975336,24.1080156 C15.3106443,25.1164125 16.2169731,24.2136707 17.2383068,23.6336445 C18.1094224,23.1398672 24.2776707,19.1199427 24.9259811,18.6685789 C25.9379708,17.9656491 26.253498,17.3518423 25.7927838,16.7624727 C25.4434375,16.3168595 24.6600064,15.943832 23.0701582,16.8681356 Z" id="路径" stroke="#666666" stroke-width="1.2"></path>
                </g>
            </g>
        </g>
    </g>
</svg>