<?xml version="1.0" encoding="UTF-8"?>
<svg width="16px" height="16px" viewBox="0 0 16 16" version="1.1" xmlns="http://www.w3.org/2000/svg" xmlns:xlink="http://www.w3.org/1999/xlink">
    <title>星形</title>
    <g id="移动端" stroke="none" stroke-width="1" fill="none" fill-rule="evenodd">
        <g id="银行" transform="translate(-337.000000, -265.000000)">
            <g id="编组-16" transform="translate(8.000000, 247.000000)">
                <g id="编组-12" transform="translate(329.000000, 18.000000)">
                    <rect id="矩形" x="0" y="0" width="16" height="16"></rect>
                    <path d="M6.57432732,0.950396855 L5.01055867,4.67595114 C4.98165811,4.74480442 4.9201823,4.79442988 4.84699745,4.80798355 L1.26636228,5.47110945 C0.926421501,5.53406575 0.617277076,5.70952123 0.38825534,5.96948064 C-0.17778882,6.61198955 -0.117880033,7.59355356 0.522065361,8.1618652 L3.01717197,10.3776764 C3.07806842,10.4317562 3.10447261,10.515039 3.08591762,10.5945106 L2.26931349,14.0920503 C2.18462624,14.4547683 2.23261772,14.8359649 2.40453531,15.1661178 C2.80036999,15.9262841 3.7350353,16.2203479 4.49216871,15.8229276 L7.89748374,14.0354732 C7.96162457,14.0018056 8.03812066,14.0018056 8.10226148,14.0354732 L11.5075765,15.8229276 C11.8364122,15.9955339 12.2160878,16.0437176 12.5773586,15.9586911 C13.409173,15.7629203 13.9254214,14.9271968 13.7304317,14.0920503 L12.9138276,10.5945106 C12.8952726,10.515039 12.9216768,10.4317562 12.9825733,10.3776764 L15.4776799,8.1618652 C15.7366021,7.93192604 15.9113575,7.62154323 15.9740626,7.2802407 C16.1290429,6.43668625 15.5735717,5.6267106 14.7333829,5.47110945 L11.1527478,4.80798355 C11.0795629,4.79442988 11.0180871,4.74480442 10.9891866,4.67595114 L9.4254179,0.950396855 C9.26864108,0.576888548 8.97264771,0.27970948 8.60062965,0.122304629 C7.81332273,-0.210813415 6.90611627,0.159936103 6.57432732,0.950396855 Z" id="星形" fill="#FBB902" fill-rule="nonzero"></path>
                </g>
            </g>
        </g>
    </g>
</svg>