<?xml version="1.0" encoding="UTF-8"?>
<svg width="28px" height="26px" viewBox="0 0 28 26" version="1.1" xmlns="http://www.w3.org/2000/svg" xmlns:xlink="http://www.w3.org/1999/xlink">
    <title>集团委贷情况</title>
    <defs>
        <path d="M15.6374031,2 C16.0455526,2 16.436987,2.16212864 16.725594,2.45073225 C17.014201,2.73933587 17.176339,3.1307684 17.176339,3.53891794 L17.1755464,18.289 L17.9865464,18.289 L17.987376,3.65280433 L21.4607214,4.93473399 C22.0652757,5.15841596 22.4663617,5.73517596 22.4656277,6.37978359 L22.4655464,18.289 L22.4948783,18.2895041 C22.8796032,18.2895041 23.1935437,18.6034445 23.1935437,18.9897205 L23.1935437,19.6530027 C23.1935437,20.0397145 22.8800391,20.3532011 22.4933273,20.3532011 L5.7052119,20.3532011 C5.31910592,20.3523459 5.00654644,20.0391096 5.00654644,19.6530027 L5.00654644,18.9897205 C5.00654644,18.6034445 5.31893598,18.2895041 5.7052119,18.2895041 L5.93054644,18.289 L5.93143372,3.53891794 C5.93143372,2.68899703 6.62043076,2 7.47035167,2 L15.6374031,2 Z M14.4201262,14.0697746 L8.68611362,14.0697746 C8.26113015,14.0697746 7.91662759,14.4142771 7.91662759,14.8392426 L7.91662759,15.1193147 C7.91662759,15.5442801 8.26113015,15.8887827 8.68609558,15.8887827 L14.4201262,15.8887827 C14.8450776,15.8887827 15.1895762,15.5442841 15.1895762,15.1193327 L15.1895762,14.8392426 C15.1895762,14.4142842 14.8450846,14.0697746 14.4201262,14.0697746 Z M14.4201262,9.85312894 L8.68611362,9.85312894 L8.68609558,9.85466186 C8.26113015,9.85466186 7.91662759,10.1991644 7.91662759,10.6241298 L7.91662759,10.9026691 C7.91662759,11.3276345 8.26113015,11.6721371 8.68609558,11.6721371 L14.4201262,11.6721371 C14.8450846,11.6721371 15.1895762,11.3276275 15.1895762,10.9026691 L15.1895762,10.6225969 C15.1895762,10.1976385 14.8450846,9.85312894 14.4201262,9.85312894 Z M14.4201262,5.63801623 L8.68611362,5.63801623 C8.26113015,5.63801623 7.91662759,5.98251878 7.91662759,6.40748422 L7.91662759,6.68602344 C7.91662759,7.11098888 8.26113015,7.45549143 8.68609558,7.45549143 L14.4201262,7.45549143 C14.8450846,7.45549143 15.1895762,7.11098184 15.1895762,6.68602344 L15.1895762,6.40748422 C15.1895762,5.98252583 14.8450846,5.63801623 14.4201262,5.63801623 Z" id="path-1"></path>
        <filter x="-55.0%" y="-43.6%" width="210.0%" height="209.0%" filterUnits="objectBoundingBox" id="filter-2">
            <feOffset dx="0" dy="2" in="SourceAlpha" result="shadowOffsetOuter1"></feOffset>
            <feGaussianBlur stdDeviation="3" in="shadowOffsetOuter1" result="shadowBlurOuter1"></feGaussianBlur>
            <feColorMatrix values="0 0 0 0 0.213042436   0 0 0 0 0.613759243   0 0 0 0 0.985931839  0 0 0 0.386254371 0" type="matrix" in="shadowBlurOuter1"></feColorMatrix>
        </filter>
    </defs>
    <g id="移动端" stroke="none" stroke-width="1" fill="none" fill-rule="evenodd">
        <g id="1.首页" transform="translate(-19.000000, -661.000000)">
            <g id="编组-26" transform="translate(8.000000, 650.000000)">
                <g id="形状结合" transform="translate(11.000000, 11.000000)">
                    <use fill="black" fill-opacity="1" filter="url(#filter-2)" xlink:href="#path-1"></use>
                    <use fill="#54A7FF" fill-rule="evenodd" xlink:href="#path-1"></use>
                </g>
            </g>
        </g>
    </g>
</svg>